<?xml version="1.0" encoding="UTF-8" standalone="no"?>
<!-- Created with Inkscape (http://www.inkscape.org/) -->

<svg
   width="192"
   height="144"
   viewBox="0 0 50.8 38.1"
   version="1.1"
   id="svg5"
   inkscape:version="1.2.2 (1:1.2.2+202305151914+b0a8486541)"
   sodipodi:docname="icons.svg"
   inkscape:export-filename="icons.png"
   inkscape:export-xdpi="96"
   inkscape:export-ydpi="96"
   xml:space="preserve"
   xmlns:inkscape="http://www.inkscape.org/namespaces/inkscape"
   xmlns:sodipodi="http://sodipodi.sourceforge.net/DTD/sodipodi-0.dtd"
   xmlns="http://www.w3.org/2000/svg"
   xmlns:svg="http://www.w3.org/2000/svg"><sodipodi:namedview
     id="namedview7"
     pagecolor="#ffffff"
     bordercolor="#999999"
     borderopacity="1"
     inkscape:showpageshadow="0"
     inkscape:pageopacity="0"
     inkscape:pagecheckerboard="0"
     inkscape:deskcolor="#d1d1d1"
     inkscape:document-units="px"
     showgrid="false"
     showguides="true"
     inkscape:zoom="4.0606552"
     inkscape:cx="88.039978"
     inkscape:cy="70.555116"
     inkscape:window-width="1920"
     inkscape:window-height="1016"
     inkscape:window-x="0"
     inkscape:window-y="27"
     inkscape:window-maximized="1"
     inkscape:current-layer="layer1"><sodipodi:guide
       position="0,25.4"
       orientation="0,1"
       id="guide132"
       inkscape:locked="false"
       inkscape:label=""
       inkscape:color="rgb(0,134,229)" /><sodipodi:guide
       position="0,12.7"
       orientation="0,1"
       id="guide184"
       inkscape:locked="false"
       inkscape:label=""
       inkscape:color="rgb(0,134,229)" /><sodipodi:guide
       position="12.7,38.1"
       orientation="-1,0"
       id="guide186"
       inkscape:locked="false"
       inkscape:label=""
       inkscape:color="rgb(0,134,229)" /><sodipodi:guide
       position="25.4,38.1"
       orientation="-1,0"
       id="guide188"
       inkscape:locked="false"
       inkscape:label=""
       inkscape:color="rgb(0,134,229)" /><sodipodi:guide
       position="38.1,38.1"
       orientation="-1,0"
       id="guide273"
       inkscape:locked="false"
       inkscape:label=""
       inkscape:color="rgb(0,134,229)" /><sodipodi:guide
       position="50.8,11.760911"
       orientation="1,0"
       id="guide1232"
       inkscape:locked="false" /></sodipodi:namedview><defs
     id="defs2"><marker
       style="overflow:visible;"
       id="Arrow1Send"
       refX="0.0"
       refY="0.0"
       orient="auto"><path
         transform="scale(0.2) rotate(180) translate(6,0)"
         style="fill-rule:evenodd;fill:context-stroke;stroke:context-stroke;stroke-width:1.0pt;"
         d="M 0.0,0.0 L 5.0,-5.0 L -12.5,0.0 L 5.0,5.0 L 0.0,0.0 z "
         id="path17381" /></marker><marker
       style="overflow:visible;"
       id="Arrow1Mend"
       refX="0.0"
       refY="0.0"
       orient="auto"><path
         transform="scale(0.4) rotate(180) translate(10,0)"
         style="fill-rule:evenodd;fill:context-stroke;stroke:context-stroke;stroke-width:1.0pt;"
         d="M 0.0,0.0 L 5.0,-5.0 L -12.5,0.0 L 5.0,5.0 L 0.0,0.0 z "
         id="path17375" /></marker><marker
       style="overflow:visible"
       id="Arrow1Lstart"
       refX="0.0"
       refY="0.0"
       orient="auto"><path
         transform="scale(0.8) translate(12.5,0)"
         style="fill-rule:evenodd;fill:context-stroke;stroke:context-stroke;stroke-width:1.0pt"
         d="M 0.0,0.0 L 5.0,-5.0 L -12.5,0.0 L 5.0,5.0 L 0.0,0.0 z "
         id="path17366" /></marker></defs><g
     inkscape:groupmode="layer"
     id="layer2"
     inkscape:label="Layer 2"
     transform="translate(12.7)"
     style="display:inline" /><g
     inkscape:label="Layer 1"
     inkscape:groupmode="layer"
     id="layer1"><rect
       style="display:none;fill:#000000;fill-opacity:1;stroke:none;stroke-width:2;stroke-linecap:square"
       id="rect357"
       width="50.799999"
       height="38.099998"
       x="0"
       y="0" /><path
       id="path6514"
       style="color:#000000;display:inline;fill:#ffffff;fill-opacity:1;fill-rule:evenodd;stroke-miterlimit:5"
       d="m -7.8858235,26.588041 -0.5994466,2.251542 h -3.0266889 v 2.117184 h 2.462899 l -0.4221964,1.58595 H -11.511959 V 34.6599 h 1.476912 l -0.599446,2.252059 h 2.1171835 L -7.9178629,34.6599 h 1.5859497 l -0.5994466,2.252059 h 2.1171834 L -4.2147297,34.6599 h 3.0266886 v -2.117183 h -2.4628988 l 0.4221965,-1.58595 h 2.0407023 v -2.117184 h -1.4769124 l 0.5994466,-2.251542 h -2.1171834 l -0.5994467,2.251542 h -1.5859497 l 0.5994466,-2.251542 z m 0.953947,4.368726 h 1.5859497 l -0.4221965,1.58595 H -7.354073 Z"
       transform="translate(12.7)" /><path
       style="color:#000000;display:inline;fill:#ffffff;fill-opacity:1;fill-rule:evenodd;stroke-miterlimit:5;-inkscape-stroke:none"
       d="m 6.3496094,26.136719 c -3.093802,0 -5.61328128,2.519479 -5.61328128,5.613281 0,3.093802 2.51947928,5.613281 5.61328128,5.613281 3.093802,0 5.6132816,-2.519479 5.6132816,-5.613281 0,-3.093802 -2.5194796,-5.613281 -5.6132816,-5.613281 z m 0,1.058593 c 2.5218385,0 4.5546876,2.032849 4.5546876,4.554688 0,2.521839 -2.0328491,4.554687 -4.5546876,4.554687 -2.5218386,0 -4.5546875,-2.032848 -4.5546875,-4.554687 0,-2.521839 2.0328489,-4.554688 4.5546875,-4.554688 z"
       id="path7993"
       transform="translate(12.7)" /><path
       style="color:#000000;display:inline;fill:#ffffff;fill-opacity:1;fill-rule:evenodd;stroke-miterlimit:5;-inkscape-stroke:none"
       d="m 5.8203125,28.425781 v 3.5625 l 2.4375,2.15625 0.7011719,-0.792969 -2.0800782,-1.839843 v -3.085938 z"
       id="path7995"
       transform="translate(12.7)" /><path
       sodipodi:type="star"
       style="display:inline;fill:#ffffff;fill-opacity:1;fill-rule:evenodd;stroke:none;stroke-width:1.38839;stroke-linecap:butt;stroke-miterlimit:5;stroke-dasharray:none;stroke-opacity:1"
       id="path9041"
       inkscape:flatsided="true"
       sodipodi:sides="3"
       sodipodi:cx="127.93777"
       sodipodi:cy="116.90705"
       sodipodi:r1="27.840595"
       sodipodi:r2="13.920298"
       sodipodi:arg1="2.0943951"
       sodipodi:arg2="3.1415927"
       inkscape:rounded="0"
       inkscape:randomized="0"
       d="m 114.01747,141.01771 0,-48.221322 41.76089,24.110662 z"
       transform="matrix(0.20168318,0,0,0.20168318,4.778657,8.1718134)"
       inkscape:transform-center-x="-1.4037436" /><path
       id="path5741"
       style="color:#000000;fill:#ffffff;fill-opacity:1;fill-rule:evenodd;stroke-miterlimit:5;-inkscape-stroke:none"
       d="m 31.75,13.47463 c -0.406326,0 -0.802996,0.04458 -1.185457,0.128674 l 0.823205,3.073197 c 0.117898,-0.01719 0.238908,-0.02635 0.362252,-0.02635 0.574938,0 1.096939,0.194108 1.506368,0.520382 l 2.23759,-2.237589 C 34.501816,14.028627 33.186031,13.47463 31.75,13.47463 Z m -1.696537,0.267167 c -1.704251,0.551153 -3.059689,1.907112 -3.610633,3.611666 l 3.066997,0.822172 c 0.240559,-0.630277 0.735402,-1.125493 1.365808,-1.365808 z m 5.813082,1.564245 -2.237073,2.237073 c 0.326974,0.409646 0.520898,0.932301 0.520898,1.507919 0,0.122992 -0.0093,0.243152 -0.02636,0.360701 l 3.071647,0.823206 c 0.08386,-0.382083 0.128675,-0.778016 0.128675,-1.183907 0,-1.436031 -0.553937,-2.752394 -1.457792,-3.744992 z m -9.561691,2.558501 c -0.08416,0.382782 -0.129191,0.779864 -0.129191,1.186491 0,1.43577 0.553711,2.750845 1.457276,3.742924 l 2.237072,-2.237073 C 29.543464,20.14778 29.34963,19.626237 29.34963,19.051034 c 0,-0.123697 0.0091,-0.245068 0.02635,-0.363286 z m 7.685836,2.059822 c -0.240423,0.6307 -0.735768,1.125242 -1.366842,1.365292 l 0.822173,3.068029 c 1.705064,-0.550894 3.061063,-1.906474 3.611665,-3.611665 z m -3.747575,1.005107 -2.237589,2.237589 c 0.992204,0.904146 2.308183,1.457793 3.744474,1.457793 0.406171,0 0.802614,-0.0447 1.184941,-0.128675 l -0.823206,-3.073197 c -0.117738,0.01711 -0.238567,0.02635 -0.361735,0.02635 -0.575203,0 -1.097371,-0.193727 -1.506885,-0.519865 z" /><path
       style="color:#000000;fill:#ffffff;fill-opacity:1;fill-rule:evenodd;stroke-width:1;stroke-linecap:square;stroke-miterlimit:5;-inkscape-stroke:none"
       d="m 6.3496093,1.8435263 c -2.4744056,0 -4.506083,2.0316774 -4.506083,4.506083 0,2.4744056 2.0316774,4.5060827 4.506083,4.5060827 2.4744056,0 4.5060827,-2.0316771 4.5060827,-4.5060827 0,-2.4744056 -2.0316771,-4.506083 -4.5060827,-4.506083 z m 0,2.4038356 c 1.1755952,0 2.1022474,0.9266521 2.1022474,2.1022474 0,1.1755952 -0.9266522,2.1022474 -2.1022474,2.1022474 -1.1755953,0 -2.1022474,-0.9266522 -2.1022474,-2.1022474 0,-1.1755953 0.9266521,-2.1022474 2.1022474,-2.1022474 z"
       id="path318" /><path
       id="rect2703"
       style="fill:#ffffff;fill-opacity:1;fill-rule:evenodd;stroke-width:2.11668;stroke-linecap:square;stroke-miterlimit:5"
       d="M 5.6953044,0.51950047 H 7.0039147 L 7.8765753,2.9105467 H 4.8226436 Z"
       sodipodi:nodetypes="ccccc" /><path
       id="path2706"
       style="fill:#ffffff;fill-opacity:1;fill-rule:evenodd;stroke-width:2.11668;stroke-linecap:square;stroke-miterlimit:5"
       d="M 5.6953044,12.179719 H 7.0039147 L 7.8765752,9.788672 H 4.8226436 Z"
       sodipodi:nodetypes="ccccc" /><path
       id="path2716"
       style="fill:#ffffff;fill-opacity:1;fill-rule:evenodd;stroke-width:2.11668;stroke-linecap:square;stroke-miterlimit:5"
       d="M 10.009456,1.7644364 10.934783,2.6897636 9.8611222,4.9975528 7.7016663,2.838097 Z"
       sodipodi:nodetypes="ccccc" /><path
       id="path2718"
       style="fill:#ffffff;fill-opacity:1;fill-rule:evenodd;stroke-width:2.11668;stroke-linecap:square;stroke-miterlimit:5"
       d="M 1.7644361,10.009456 2.6897633,10.934783 4.997553,9.8611218 2.8380973,7.7016661 Z"
       sodipodi:nodetypes="ccccc" /><path
       id="path2720"
       style="fill:#ffffff;fill-opacity:1;fill-rule:evenodd;stroke-width:2.11668;stroke-linecap:square;stroke-miterlimit:5"
       d="m 12.179719,5.6953048 v 1.3086101 l -2.3910464,0.8726606 -10e-8,-3.0539317 z"
       sodipodi:nodetypes="ccccc" /><path
       id="path2722"
       style="fill:#ffffff;fill-opacity:1;fill-rule:evenodd;stroke-width:2.11668;stroke-linecap:square;stroke-miterlimit:5"
       d="m 0.51950017,5.6953046 1.5e-7,1.3086101 2.39104688,0.8726607 V 4.8226438 Z"
       sodipodi:nodetypes="ccccc" /><path
       id="path2724"
       style="fill:#ffffff;fill-opacity:1;fill-rule:evenodd;stroke-width:2.11668;stroke-linecap:square;stroke-miterlimit:5"
       d="M 10.934783,10.009456 10.009456,10.934783 7.7016665,9.8611223 9.8611222,7.7016665 Z"
       sodipodi:nodetypes="ccccc" /><path
       id="path2726"
       style="fill:#ffffff;fill-opacity:1;fill-rule:evenodd;stroke-width:2.11668;stroke-linecap:square;stroke-miterlimit:5"
       d="M 2.6897632,1.7644362 1.7644363,2.6897634 2.8380974,4.9975532 4.9975532,2.8380974 Z"
       sodipodi:nodetypes="ccccc" /><path
       style="fill:#ffffff;fill-opacity:1;fill-rule:evenodd;stroke:none;stroke-width:2.11667;stroke-linecap:square;stroke-miterlimit:5;stroke-dasharray:none;stroke-opacity:1"
       d="m 13.688935,4.2333333 v 4.2333334 h 2.649523 L 19.925774,11.1125 v -9.525 l -3.587316,2.6458333 z"
       id="path2782"
       sodipodi:nodetypes="ccccccc" /><path
       style="color:#000000;fill:#ffffff;fill-opacity:1;fill-rule:evenodd;stroke-linecap:square;stroke-miterlimit:5"
       d="m 21.193359,3.0214844 -0.75,0.7480469 0.375,0.3749999 c 0.584853,0.584848 0.91211,1.3779801 0.91211,2.2050782 0,0.827098 -0.327257,1.618277 -0.91211,2.203125 l -0.375,0.375 0.75,0.7480469 0.373047,-0.375 c 0.783042,-0.7830354 1.222657,-1.8437909 1.222656,-2.9511719 0,-1.1073811 -0.439613,-2.1700897 -1.222656,-2.953125 z"
       id="path4054" /><path
       style="color:#000000;fill:#ffffff;fill-opacity:1;fill-rule:evenodd;stroke-linecap:square;stroke-miterlimit:5;-inkscape-stroke:none"
       d="m 22.34375,1.8691406 -0.748047,0.7480469 0.375,0.375 c 0.890331,0.8903229 1.388672,2.0983169 1.388672,3.3574219 0,1.2591049 -0.498341,2.4651458 -1.388672,3.3554687 l -0.375,0.3749999 0.748047,0.748047 0.375,-0.375 c 1.08852,-1.0885103 1.699219,-2.5641277 1.699219,-4.1035156 0,-1.539388 -0.610699,-3.0169584 -1.699219,-4.1054688 z"
       id="ellipse4056" /><path
       style="fill:#ffffff;fill-opacity:1;fill-rule:evenodd;stroke:none;stroke-width:2.11667;stroke-linecap:square;stroke-miterlimit:5;stroke-dasharray:none;stroke-opacity:1"
       d="m 26.389012,4.2333333 v 4.2333334 h 2.649524 L 32.625852,11.1125 v -9.525 l -3.587316,2.6458333 z"
       id="path4800"
       sodipodi:nodetypes="ccccccc" /><g
       id="path4856"
       style="fill:#ffffff;fill-opacity:1"><path
         style="color:#000000;fill:#ffffff;fill-opacity:1;fill-rule:evenodd;stroke-width:1.05833;stroke-linecap:square;stroke-miterlimit:5"
         d="m 33.821146,4.8994587 2.901082,2.9010827"
         id="path4862" /><path
         style="color:#000000;fill:#ffffff;fill-opacity:1;fill-rule:evenodd;stroke-linecap:square;stroke-miterlimit:5"
         d="m 33.820312,4.1503906 -0.748046,0.75 0.375,0.3730469 2.90039,2.9003906 0.375,0.375 0.748047,-0.7480469 -0.375,-0.375 -2.900391,-2.9003906 z"
         id="path4864" /></g><g
       id="path4858"
       style="fill:#ffffff;fill-opacity:1"><path
         style="color:#000000;fill:#ffffff;fill-opacity:1;fill-rule:evenodd;stroke-width:1.05833;stroke-linecap:square;stroke-miterlimit:5;-inkscape-stroke:none"
         d="M 33.821146,7.8005414 36.722228,4.8994587"
         id="path4868" /><path
         style="color:#000000;fill:#ffffff;fill-opacity:1;fill-rule:evenodd;stroke-linecap:square;stroke-miterlimit:5;-inkscape-stroke:none"
         d="m 36.722656,4.1503906 -0.375,0.375 -2.90039,2.9003906 -0.375,0.375 0.748046,0.7480469 0.375,-0.375 2.900391,-2.9003906 0.375,-0.3730469 z"
         id="path4870" /></g><rect
       style="fill:#ffffff;fill-opacity:1;fill-rule:evenodd;stroke:none;stroke-width:1.05833;stroke-linecap:square;stroke-miterlimit:5;stroke-dasharray:none;stroke-opacity:1"
       id="rect4874"
       width="2.1166668"
       height="5.2916665"
       x="0.52916664"
       y="19.686472" /><rect
       style="fill:#ffffff;fill-opacity:1;fill-rule:evenodd;stroke:none;stroke-width:1.05833;stroke-linecap:square;stroke-miterlimit:5;stroke-dasharray:none;stroke-opacity:1"
       id="rect4876"
       width="2.1166668"
       height="6.8791666"
       x="2.9104161"
       y="18.098972" /><rect
       style="fill:#ffffff;fill-opacity:1;fill-rule:evenodd;stroke:none;stroke-width:1.05833;stroke-linecap:square;stroke-miterlimit:5;stroke-dasharray:none;stroke-opacity:1"
       id="rect4878"
       width="2.1166668"
       height="8.4666662"
       x="5.2916656"
       y="16.511473" /><rect
       style="fill:#ffffff;fill-opacity:1;fill-rule:evenodd;stroke:none;stroke-width:1.05833;stroke-linecap:square;stroke-miterlimit:5;stroke-dasharray:none;stroke-opacity:1"
       id="rect4880"
       width="2.1166668"
       height="11.641666"
       x="10.054165"
       y="13.336472" /><rect
       style="fill:#ffffff;fill-opacity:1;fill-rule:evenodd;stroke:none;stroke-width:1.05833;stroke-linecap:square;stroke-miterlimit:5;stroke-dasharray:none;stroke-opacity:1"
       id="rect4882"
       width="2.1166668"
       height="10.054167"
       x="7.6729155"
       y="14.923971" /><rect
       style="fill:#ffffff;fill-opacity:1;fill-rule:evenodd;stroke:none;stroke-width:1.05833;stroke-linecap:square;stroke-miterlimit:5;stroke-dasharray:none;stroke-opacity:1"
       id="rect4884"
       width="1.7145001"
       height="7.3843446"
       x="13.485637"
       y="15.616936" /><rect
       style="fill:#ffffff;fill-opacity:1;fill-rule:evenodd;stroke:none;stroke-width:1.05833;stroke-linecap:square;stroke-miterlimit:5;stroke-dasharray:none;stroke-opacity:1"
       id="rect4886"
       width="1.7145001"
       height="7.3843446"
       x="15.390636"
       y="15.616936" /><rect
       style="fill:#ffffff;fill-opacity:1;fill-rule:evenodd;stroke:none;stroke-width:1.05833;stroke-linecap:square;stroke-miterlimit:5;stroke-dasharray:none;stroke-opacity:1"
       id="rect4888"
       width="1.7145001"
       height="7.3843446"
       x="17.295635"
       y="15.616936" /><rect
       style="fill:#ffffff;fill-opacity:1;fill-rule:evenodd;stroke:none;stroke-width:1.05833;stroke-linecap:square;stroke-miterlimit:5;stroke-dasharray:none;stroke-opacity:1"
       id="rect4890"
       width="1.7145001"
       height="7.3843436"
       x="23.010635"
       y="15.616936" /><rect
       style="fill:#ffffff;fill-opacity:1;fill-rule:evenodd;stroke:none;stroke-width:1.05833;stroke-linecap:square;stroke-miterlimit:5;stroke-dasharray:none;stroke-opacity:1"
       id="rect4892"
       width="1.7145001"
       height="7.3843446"
       x="19.200636"
       y="15.616936" /><rect
       style="fill:#ffffff;fill-opacity:1;fill-rule:evenodd;stroke:none;stroke-width:1.05833;stroke-linecap:square;stroke-miterlimit:5;stroke-dasharray:none;stroke-opacity:1"
       id="rect4894"
       width="1.7145001"
       height="7.3843446"
       x="21.105635"
       y="15.616936" /><g
       id="g1388"
       transform="matrix(0.8761101,0,0,0.9191673,5.3974589,0.5265715)"
       style="stroke-width:1.11435;fill:#ffffff;fill-opacity:1"><rect
         style="fill:#ffffff;fill-rule:evenodd;stroke-width:1.17936;stroke-miterlimit:5;fill-opacity:1"
         id="rect408"
         width="3.2482023"
         height="10.554429"
         x="40.304985"
         y="1.0583333" /><rect
         style="fill:#ffffff;fill-rule:evenodd;stroke-width:1.17936;stroke-miterlimit:5;fill-opacity:1"
         id="rect410"
         width="3.2482023"
         height="10.554429"
         x="45.596657"
         y="1.0583333" /></g><g
       id="layer1-7"
       transform="matrix(0.08620291,0,0,0.08620291,38.611224,12.900472)"
       style="fill:#ffffff;fill-opacity:1;stroke-width:11.6006"><path
         style="color:#000000;fill:#ffffff;fill-opacity:1;fill-rule:evenodd;stroke-width:11.6006;stroke-miterlimit:10"
         d="M 63.728516,14.445313 C 42.456002,15.935051 23.386268,29.237209 14.910156,49.332031 5.2231717,72.297542 11.5577,98.966876 30.535156,115.13672 l 9.736328,-11.42578 C 26.225552,91.743026 21.575566,72.156353 28.742187,55.166016 35.90881,38.175678 53.198772,27.812118 71.587891,29.494141 c 18.389119,1.682021 33.504759,15.008792 37.462889,33.015625 3.95814,18.006833 -4.17616,36.424843 -20.166014,45.646484 l 7.5,13.00586 C 117.98494,108.70489 129.06359,83.62721 123.71289,59.285156 118.36219,34.943104 97.79034,16.814607 72.955078,14.542969 69.850671,14.259014 66.767446,14.232493 63.728516,14.445313 Z"
         id="path17138" /><path
         style="fill:#ffffff;fill-opacity:1;fill-rule:evenodd;stroke:none;stroke-width:153.466;stroke-linecap:butt;stroke-miterlimit:10;stroke-dasharray:none;stroke-opacity:1"
         d="M 18.138006,119.42459 60.318413,128.37071 45.228126,92.384343 Z"
         id="path604" /></g></g></svg>
